<svg width="16" height="16" viewBox="0 0 16 16" fill="none" xmlns="http://www.w3.org/2000/svg">
<path fill-rule="evenodd" clip-rule="evenodd" d="M7.5958 1.6183C7.84225 1.46057 8.15793 1.46057 8.40438 1.6183L14.6544 5.6183C15.0033 5.84158 15.1051 6.30541 14.8818 6.65429C14.6585 7.00317 14.1947 7.10499 13.8458 6.8817L13.2501 6.50045V12.5C13.2501 13.6046 12.3547 14.5 11.2501 14.5H4.75009C3.64552 14.5 2.75009 13.6046 2.75009 12.5V6.50045L2.15438 6.8817C1.8055 7.10499 1.34167 7.00317 1.11839 6.65429C0.895106 6.30541 0.996922 5.84158 1.3458 5.6183L7.5958 1.6183ZM5.62509 7.375C5.41798 7.375 5.25009 7.54289 5.25009 7.75C5.25009 7.95711 5.41798 8.125 5.62509 8.125H10.3751C10.5822 8.125 10.7501 7.95711 10.7501 7.75C10.7501 7.54289 10.5822 7.375 10.3751 7.375H5.62509ZM5.25009 9.25C5.25009 9.04289 5.41798 8.875 5.62509 8.875H7.62509C7.8322 8.875 8.00009 9.04289 8.00009 9.25C8.00009 9.45711 7.8322 9.625 7.62509 9.625H5.62509C5.41798 9.625 5.25009 9.45711 5.25009 9.25ZM5.62509 10.375C5.41798 10.375 5.25009 10.5429 5.25009 10.75C5.25009 10.9571 5.41798 11.125 5.62509 11.125H8.62509C8.8322 11.125 9.00009 10.9571 9.00009 10.75C9.00009 10.5429 8.8322 10.375 8.62509 10.375H5.62509Z" fill="#E7E7E7"/>
</svg>
